<svg width="55" height="28" viewBox="0 0 55 28" fill="none" xmlns="http://www.w3.org/2000/svg">
<path d="M3.75029 3.98157C1.82621 3.98157 0.266449 8.14094 0.266449 13.2718C0.266449 18.4027 1.82621 22.5621 3.75029 22.5621L9.06431 22.5621L9.06431 3.98157L3.75029 3.98157Z" fill="#216E9B"/>
<path d="M9.5567 3.05176e-05C6.80812 3.05176e-05 4.57979 6.01646 4.57979 13.4377C4.57979 20.8593 6.80779 26.8754 9.5567 26.8754H15.1972L15.1972 3.05176e-05L9.5567 3.05176e-05Z" fill="#2981B5"/>
<path d="M15.1972 3.05176e-05C17.9455 3.05176e-05 20.1741 6.01646 20.1741 13.4377C20.1741 20.8593 17.9455 26.8754 15.1972 26.8754C12.4483 26.8754 10.2203 20.8593 10.2203 13.4377C10.2203 6.01646 12.4483 3.05176e-05 15.1972 3.05176e-05Z" fill="#47A4DB"/>
<path d="M15.8608 9.62207C15.1279 9.62207 14.5336 11.4048 14.5336 13.6036C14.5336 15.8024 15.1279 17.5851 15.8608 17.5851C16.1966 17.5851 16.5025 17.2072 16.7364 16.5898L27.4729 16.5898C27.2248 14.516 27.2248 12.8571 27.6395 10.7833L16.7364 10.6175C16.5025 9.99998 16.1966 9.62207 15.8608 9.62207Z" fill="white"/>
<path d="M15.8608 17.5851C16.1966 17.5851 16.5025 17.2072 16.7364 16.5898L27.4729 16.5898C27.6694 15.6226 27.7769 14.6239 27.7971 13.6036L14.5336 13.6036C14.5336 15.8024 15.1279 17.5851 15.8608 17.5851Z" fill="white"/>
<path d="M51.2797 23.3086C53.2038 23.3086 54.7636 19.1492 54.7636 14.0183C54.7636 8.88745 53.2038 4.72808 51.2797 4.72808L45.9657 4.72808L45.9657 23.3086L51.2797 23.3086Z" fill="#216E9B"/>
<path d="M45.4733 27.2901C48.2219 27.2901 50.4503 21.2737 50.4503 13.8524C50.4503 6.43085 48.2223 0.414747 45.4733 0.414747H39.8328L39.8328 27.2901H45.4733Z" fill="#2981B5"/>
<path d="M39.8328 27.2901C37.0846 27.2901 34.8559 21.2737 34.8559 13.8524C34.8559 6.43085 37.0846 0.414747 39.8328 0.414747C42.5818 0.414747 44.8098 6.43085 44.8098 13.8524C44.8098 21.2737 42.5818 27.2901 39.8328 27.2901Z" fill="#47A4DB"/>
<path d="M39.1693 17.6681C39.9022 17.6681 40.4964 15.8853 40.4964 13.6865C40.4964 11.4877 39.9022 9.70499 39.1693 9.70499C38.8335 9.70499 38.5276 10.0829 38.2936 10.7004L27.5571 10.7004C27.1581 12.6677 27.118 14.691 27.4387 16.6727L38.2936 16.6727C38.5276 17.2901 38.8335 17.6681 39.1693 17.6681Z" fill="white"/>
<path d="M39.1693 9.53908C38.8336 9.53908 38.5276 9.97211 38.2937 10.6796L27.2247 10.7833C27.0283 11.8915 27.245 12.457 27.2247 13.626L40.4965 14.1013C40.4965 11.5818 39.9023 9.53908 39.1693 9.53908Z" fill="white"/>
</svg>
